# Blender v2.82 (sub 7) OBJ File: 'Cube.blend'
# www.blender.org
mtllib Cube.mtl
o Cube
v 1.000000 1.000000 -1.000000
v 1.000000 -1.000000 -1.000000
v 1.000000 1.000000 1.000000
v 1.000000 -1.000000 1.000000
v -1.000000 1.000000 -1.000000
v -1.000000 -1.000000 -1.000000
v -1.000000 1.000000 1.000000
v -1.000000 -1.000000 1.000000
vt 0.500000 0.333360
vt 0.500000 0.000015
vt 0.250005 0.000015
vt 0.250005 0.333360
vt 0.250005 0.666660
vt 0.000003 0.333360
vt 0.000003 0.666660
vt 0.999989 0.666660
vt 0.999990 0.333360
vt 0.750000 0.333360
vt 0.750000 0.666660
vt 0.500000 0.999998
vt 0.500000 0.666660
vt 0.250005 0.999998
vn 0.0000 1.0000 0.0000
vn 0.0000 0.0000 1.0000
vn -1.0000 0.0000 0.0000
vn 0.0000 -1.0000 0.0000
vn 1.0000 0.0000 0.0000
vn 0.0000 0.0000 -1.0000
usemtl Material
s off
f 1/1/1 5/2/1 7/3/1 3/4/1
f 4/5/2 3/4/2 7/6/2 8/7/2
f 8/8/3 7/9/3 5/10/3 6/11/3
f 6/12/4 2/13/4 4/5/4 8/14/4
f 2/13/5 1/1/5 3/4/5 4/5/5
f 6/11/6 5/10/6 1/1/6 2/13/6
